<?xml version="1.0" encoding="iso-8859-1"?>
<!-- Generator: Adobe Illustrator 19.0.0, SVG Export Plug-In . SVG Version: 6.00 Build 0)  -->
<svg version="1.1" id="Capa_1" xmlns="http://www.w3.org/2000/svg" xmlns:xlink="http://www.w3.org/1999/xlink" x="0px" y="0px"
	 viewBox="0 0 511.999 511.999" style="enable-background:new 0 0 511.999 511.999;" xml:space="preserve">
<g>
	<path style="fill:#FFD07D;" d="M68.543,223.747c-31.394,0-32.171,3.009-27.482-30.249c34.495-244.664,395.38-244.664,429.875,0
		c4.689,33.258,3.911,30.249-27.482,30.249L68.543,223.747L68.543,223.747z M405.782,501.999c30.062,0,55.682-19.983,64.232-47.322
		c7.443-23.8,0.599-19.947-19.983-19.947H61.966c-20.582,0-27.427-3.852-19.983,19.947c8.55,27.339,34.17,47.322,64.232,47.322
		H405.782z"/>
	<path style="fill:#A44F38;" d="M84.854,223.747h342.289c25.25,0,45.909,16.014,45.909,35.586v139.811
		c0,19.572-20.659,35.586-45.909,35.586H84.854c-25.25,0-45.909-16.014-45.909-35.586V259.333
		C38.945,239.761,59.604,223.747,84.854,223.747z"/>
	<path style="fill:#FD4A4A;" d="M84.854,223.747h342.289c20.467,0,37.916,10.521,43.793,24.932v69.248H38.945v-58.594
		C38.945,239.761,59.604,223.747,84.854,223.747z"/>
	<g>
		<polygon style="fill:#FFCE34;" points="100.179,413.017 130.796,387.023 161.413,361.029 100.179,361.029 38.945,361.029 
			69.562,387.023 		"/>
		<polygon style="fill:#FFCE34;" points="411.818,275.733 442.435,249.74 473.052,223.747 411.818,223.747 350.584,223.747 
			381.201,249.74 		"/>
	</g>
	<rect x="38.945" y="317.93" style="fill:#1FB571;" width="434.11" height="43.1"/>
</g>
<path d="M364.068,95.826c22.655,17.891,39.158,41.4,49.049,69.876c1.435,4.131,5.306,6.722,9.446,6.722
	c1.088,0,2.196-0.179,3.282-0.557c5.217-1.812,7.978-7.511,6.165-12.727c-11.163-32.135-29.852-58.717-55.546-79.009
	c-4.335-3.422-10.622-2.684-14.046,1.65C358.995,86.114,359.734,92.403,364.068,95.826z"/>
<path d="M472.707,232.885l4.378-4.061c0.204-0.182,0.406-0.367,0.604-0.562c0.271-0.251,0.522-0.516,0.758-0.79
	c0.045-0.05,0.094-0.093,0.139-0.144c6.218-7.095,4.893-16.496,2.251-35.226c-8.419-59.719-36.298-109.553-80.623-144.114
	C360.527,17.042,309.31,0,255.999,0S151.47,17.042,111.782,47.988c-44.324,34.561-72.203,84.395-80.623,144.114
	c-2.642,18.73-3.967,28.132,2.252,35.227c1.88,2.145,4.026,3.588,6.533,4.558c-7.112,7.943-10.998,17.561-10.998,27.446v139.811
	c0,9.921,3.919,19.105,10.544,26.596c-2.814,0.923-5.281,2.493-7.292,5.152c-5.312,7.023-2.917,16.67,0.242,26.77
	c4.809,15.377,14.61,29.203,27.598,38.932c13.455,10.078,29.423,15.405,46.178,15.405h299.567c16.755,0,32.724-5.327,46.178-15.405
	c12.988-9.729,22.789-23.555,27.599-38.932c3.159-10.1,5.554-19.748,0.241-26.77c-2.011-2.658-4.478-4.228-7.292-5.151
	c6.626-7.492,10.544-16.675,10.544-26.596V259.333C483.052,249.841,479.395,240.566,472.707,232.885z M48.945,351.029v-23.103
	h414.107v23.103H48.945z M134.183,371.029l-34.004,28.869l-34.004-28.869H134.183z M426.648,233.749c0.247,0,0.495,0,0.751,0
	c4.481,0.008,8.876,0.655,12.979,1.847l-28.855,26.77l-33.537-28.472L426.648,233.749z M48.932,213.568
	c-0.073-3.746,1.035-11.606,2.031-18.674C67.997,74.079,166.215,20,255.999,20S444,74.079,461.034,194.894
	c0.996,7.068,2.105,14.929,2.031,18.674c-2.738,0.302-7.778,0.258-12.334,0.219l-2.989-0.024
	c-0.932-0.006-12.459-0.011-20.317-0.014c-0.034,0-0.068-0.002-0.103-0.002c-0.069,0-0.14,0.001-0.209,0.001l-0.526,0.001
	c-3.432-0.001-6.009-0.001-6.391-0.001c-0.147,0-0.289,0.016-0.434,0.022l-67.086,0.2c-1.387-0.295-2.817-0.283-4.194,0.013
	l-117.23,0.349c-1.045-0.371-2.166-0.583-3.339-0.583h-41.438c-5.523,0-10,4.477-10,10s4.477,10,10,10h20.073
	c1.094,0.411,2.274,0.646,3.511,0.646c0.01,0,0.02,0,0.03,0l137.102-0.408l58.154,49.371c1.871,1.588,4.172,2.377,6.471,2.377
	c2.446,0,4.889-0.893,6.802-2.669l39.423-36.575c2.569,3.085,5.01,7.438,5.01,12.843v48.594H48.945v-48.594
	c0-5.53,2.64-11.108,7.433-15.708c6.222-5.971,14.969-9.477,24.433-9.878h3.834l15.521,0.638c1.386,0.056,2.718-0.175,3.94-0.638
	h5.874c5.523,0,10-4.477,10-10s-4.477-10-10-10L48.932,213.568 M49.554,444.501l282.544,0.228c5.523,0,10-4.477,10-10
	s-4.477-10-10-10l0,0l0,0H90.493c-0.561,0-2.759,0-5.754-0.002c-19.414-0.046-35.794-11.743-35.794-25.584v-16.506l44.762,38.003
	c1.867,1.585,4.169,2.377,6.472,2.377c2.303,0,4.606-0.793,6.472-2.377l58.435-49.61h297.967v28.114
	c0,13.869-16.444,25.586-35.909,25.586h-18.55c-5.523,0-10,4.477-10,10s4.477,10,10,10h41.438c2.904,0,5.521-0.072,7.829-0.136
	c1.479-0.041,3.127-0.086,4.582-0.092c-0.354,1.628-0.956,3.94-1.973,7.19c-7.422,23.732-29.911,40.307-54.688,40.307H106.215
	c-24.777,0-47.266-16.575-54.688-40.307C50.511,448.442,49.909,446.129,49.554,444.501"/>
<path d="M358.925,171.407c1.953,1.956,4.514,2.934,7.076,2.934c2.557,0,5.114-0.975,7.066-2.924
	c3.908-3.903,3.912-10.234,0.009-14.142l-0.379-0.38c-3.903-3.908-10.234-3.912-14.142-0.009s-3.912,10.234-0.009,14.142
	L358.925,171.407z"/>
<path d="M284.715,95.853c1.953,1.953,4.512,2.929,7.071,2.929c2.559,0,5.118-0.977,7.071-2.929c3.905-3.905,3.905-10.237,0-14.142
	l-0.38-0.38c-3.905-3.905-10.236-3.905-14.142,0c-3.905,3.905-3.905,10.237,0,14.142L284.715,95.853z"/>
<path d="M210.682,190.344c-3.905,3.905-3.905,10.237,0,14.142l0.38,0.38c1.953,1.953,4.512,2.929,7.071,2.929
	s5.118-0.977,7.071-2.929c3.905-3.905,3.905-10.237,0-14.142l-0.38-0.38C220.918,186.439,214.587,186.439,210.682,190.344z"/>
<path d="M300.222,183.079l0.38,0.38c1.953,1.953,4.512,2.929,7.071,2.929c2.559,0,5.118-0.977,7.071-2.929
	c3.905-3.905,3.905-10.237,0-14.142l-0.38-0.38c-3.905-3.905-10.236-3.905-14.142,0
	C296.316,172.842,296.316,179.174,300.222,183.079z"/>
<path d="M173.667,72.752c1.953,1.953,4.512,2.929,7.071,2.929s5.118-0.977,7.071-2.929c3.905-3.905,3.905-10.237,0-14.142
	l-0.38-0.38c-3.905-3.905-10.236-3.905-14.142,0c-3.905,3.905-3.905,10.237,0,14.142L173.667,72.752z"/>
<path d="M111.177,147.291c1.953,1.956,4.514,2.934,7.076,2.934c2.557,0,5.114-0.975,7.066-2.924
	c3.908-3.903,3.912-10.234,0.009-14.142l-0.379-0.38c-3.903-3.908-10.235-3.912-14.142-0.009
	c-3.908,3.903-3.912,10.234-0.009,14.142L111.177,147.291z"/>
<path d="M207.349,135.126c1.953,1.956,4.514,2.934,7.076,2.934c2.557,0,5.114-0.975,7.066-2.924
	c3.908-3.903,3.912-10.234,0.009-14.142l-0.379-0.38c-3.903-3.908-10.234-3.912-14.142-0.009s-3.912,10.234-0.009,14.142
	L207.349,135.126z"/>
<path d="M156.917,233.747h0.475c5.523,0,10-4.477,10-10s-4.477-10-10-10h-0.475c-5.523,0-10,4.477-10,10
	C146.917,229.27,151.394,233.747,156.917,233.747z"/>
<path d="M361.658,424.729h-0.475c-5.523,0-10,4.477-10,10s4.477,10,10,10h0.475c5.523,0,10-4.477,10-10
	C371.658,429.207,367.181,424.729,361.658,424.729z"/>
<g>
</g>
<g>
</g>
<g>
</g>
<g>
</g>
<g>
</g>
<g>
</g>
<g>
</g>
<g>
</g>
<g>
</g>
<g>
</g>
<g>
</g>
<g>
</g>
<g>
</g>
<g>
</g>
<g>
</g>
</svg>
